<?xml version="1.0" standalone="no"?>
<!DOCTYPE svg PUBLIC "-//W3C//DTD SVG 1.1//EN" "http://www.w3.org/Graphics/SVG/1.1/DTD/svg11.dtd" >
<svg xmlns="http://www.w3.org/2000/svg">
<metadata>Generated by IcoMoon</metadata>
<defs>
<font id="wrapmsgr-icon" horiz-adv-x="1024">
<font-face units-per-em="1024" ascent="960" descent="-64" />
<missing-glyph horiz-adv-x="1024" />
<glyph unicode="&#x20;" horiz-adv-x="512" d="" />
<glyph unicode="&#xe908;" glyph-name="bell" d="M768 362.651v213.333c0 141.385-114.615 256-256 256s-256-114.615-256-256v-213.333c0-31.086-8.311-60.231-22.832-85.333h557.664c-14.521 25.103-22.832 54.247-22.832 85.333zM938.667 191.984h-853.333c-56.889 0-56.889 85.333 0 85.333 47.128 0 85.333 38.205 85.333 85.333v213.333c0 188.513 152.82 341.333 341.333 341.333s341.333-152.82 341.333-341.333v-213.333c0-47.128 38.205-85.333 85.333-85.333 56.889 0 56.889-85.333 0-85.333zM622.72 42.575c-22.899-39.475-65.084-63.773-110.72-63.773s-87.821 24.298-110.72 63.773c-16.5 28.444 4.023 64.076 36.907 64.076h147.627c32.884 0 53.407-35.631 36.907-64.076z" />
<glyph unicode="&#xe919;" glyph-name="untitled" d="M428.8 204.784c0 0-6.4 0 0 0-12.8 0-25.6 6.4-38.4 19.2l-172.8 192c-12.8 19.2-12.8 51.2 6.4 70.4s51.2 12.8 70.4-6.4l140.8-153.6 307.2 288c19.2 19.2 51.2 19.2 70.4 0s19.2-51.2 0-70.4l-339.2-320c-25.6-12.8-32-19.2-44.8-19.2z" />
<glyph unicode="&#xe91c;" glyph-name="untitled1" horiz-adv-x="788" d="M511.224 719.99v240.010h-476.672c-19.062 0-34.54-15.833-34.54-35.328v-953.383c0-19.495 15.478-35.289 34.54-35.289h718.572c19.102 0 34.58 15.793 34.58 35.289v712.231h-240.758c-19.732 0-35.722 16.305-35.722 36.47z" />
<glyph unicode="&#xe91d;" glyph-name="untitled2" horiz-adv-x="788" d="M115.87 432.86h555.914v57.108h-555.914z" />
<glyph unicode="&#xe91e;" glyph-name="untitled3" horiz-adv-x="788" d="M115.87 281.23h379.274v57.068h-379.274z" />
<glyph unicode="&#xe91f;" glyph-name="untitled4" horiz-adv-x="788" d="M115.87 129.52h198.498v57.068h-198.498z" />
<glyph unicode="&#xe920;" glyph-name="untitled5" horiz-adv-x="788" d="M511.224 959.988v-240.010c0-20.126 16.345-36.47 36.51-36.47h239.97l-276.48 276.48z" />
<glyph unicode="&#xe921;" glyph-name="download" d="M839.111 277.317c21.6 0 39.452-16.051 42.277-36.877l0.389-5.79v-128c0-67.747-52.631-123.201-119.236-127.705l-8.764-0.295h-597.333c-67.747 0-123.201 52.631-127.705 119.236l-0.295 8.764v128c0 23.564 19.103 42.667 42.667 42.667 21.6 0 39.452-16.051 42.277-36.877l0.389-5.79v-128c0-21.6 16.051-39.452 36.877-42.277l5.79-0.389h597.333c21.6 0 39.452 16.051 42.277 36.877l0.389 5.79v128c0 23.564 19.103 42.667 42.667 42.667zM455.111 917.317c23.564 0 42.667-19.103 42.667-42.667v0-494.251l97.83 97.754c16.662 16.662 43.677 16.662 60.34 0 15.148-15.148 16.525-38.851 4.131-55.554l-4.131-4.785-170.667-170.667c-1.399-1.399-2.896-2.702-4.478-3.897l4.478 3.897c-1.959-1.959-4.062-3.688-6.274-5.187-0.933-0.628-1.908-1.234-2.909-1.8-0.813-0.464-1.646-0.899-2.489-1.304-1.005-0.483-2.052-0.938-3.121-1.351-0.617-0.237-1.207-0.449-1.8-0.647-1.216-0.412-2.494-0.776-3.794-1.081-0.696-0.159-1.362-0.298-2.029-0.42-2.481-0.462-5.089-0.706-7.754-0.706l4.175 0.204c-0.833-0.081-1.667-0.138-2.502-0.171l-1.673-0.033c-0.558 0-1.114 0.011-1.667 0.032-0.822 0.031-1.695 0.091-2.565 0.177-1.236 0.121-2.411 0.288-3.57 0.503-0.619 0.117-1.284 0.256-1.946 0.411-1.335 0.309-2.612 0.674-3.864 1.095-0.558 0.189-1.148 0.401-1.733 0.626-1.1 0.424-2.148 0.879-3.173 1.374-0.823 0.394-1.655 0.828-2.475 1.293-0.993 0.566-1.969 1.172-2.917 1.815-0.486 0.325-0.982 0.677-1.472 1.040-1.89 1.429-3.386 2.732-4.785 4.131l-170.667 170.667c-16.662 16.662-16.662 43.677 0 60.34 15.148 15.148 38.851 16.525 55.554 4.131l4.785-4.131 97.83-97.868v494.364c0 21.6 16.051 39.452 36.877 42.277z" />
<glyph unicode="&#xe923;" glyph-name="ellipsis_horizontal" d="M341.333 426.651c0-35.346-28.654-64-64-64s-64 28.654-64 64c0 35.346 28.654 64 64 64s64-28.654 64-64zM597.333 426.651c0-35.346-28.654-64-64-64s-64 28.654-64 64c0 35.346 28.654 64 64 64s64-28.654 64-64zM853.333 426.651c0-35.346-28.654-64-64-64s-64 28.654-64 64c0 35.346 28.654 64 64 64s64-28.654 64-64z" />
<glyph unicode="&#xe924;" glyph-name="ellipsis_vertical" d="M490.667 277.317c35.346 0 64-28.654 64-64s-28.654-64-64-64c-35.346 0-64 28.654-64 64s28.654 64 64 64zM490.667 533.317c35.346 0 64-28.654 64-64s-28.654-64-64-64c-35.346 0-64 28.654-64 64s28.654 64 64 64zM490.667 789.317c35.346 0 64-28.654 64-64s-28.654-64-64-64c-35.346 0-64 28.654-64 64s28.654 64 64 64z" />
<glyph unicode="&#xe926;" glyph-name="eye" d="M512 831.984c144.205 0 270.451-69.653 377.794-184.152 36.878-39.337 68.905-81.339 96.048-123.367 16.4-25.393 27.656-45.405 33.654-57.4 6.006-12.012 6.006-26.15 0-38.162-5.998-11.995-17.254-32.007-33.654-57.4-27.143-42.028-59.17-84.030-96.048-123.367-107.343-114.499-233.589-184.152-377.794-184.152s-270.451 69.653-377.794 184.152c-36.878 39.337-68.905 81.339-96.048 123.367-16.4 25.393-27.656 45.405-33.654 57.4-6.006 12.012-6.006 26.15 0 38.162 5.998 11.995 17.254 32.007 33.654 57.4 27.143 42.028 59.17 84.030 96.048 123.367 107.343 114.499 233.589 184.152 377.794 184.152zM512 746.651c-117.128 0-222.882-58.347-315.54-157.181-33.122-35.33-62.095-73.328-86.619-111.3-6.961-10.778-13.134-20.9-18.505-30.186 5.371-9.286 11.544-19.408 18.505-30.186 24.524-37.972 53.497-75.97 86.619-111.3 92.657-98.834 198.411-157.181 315.54-157.181s222.882 58.347 315.54 157.181c33.122 35.33 62.095 73.328 86.619 111.3 6.961 10.778 13.134 20.9 18.505 30.186-5.371 9.286-11.544 19.408-18.505 30.186-24.524 37.972-53.497 75.97-86.619 111.3-92.657 98.834-198.411 157.181-315.54 157.181zM512 618.651c94.257 0 170.667-76.41 170.667-170.667s-76.41-170.667-170.667-170.667c-94.257 0-170.667 76.41-170.667 170.667s76.41 170.667 170.667 170.667zM512 533.317c-47.128 0-85.333-38.205-85.333-85.333s38.205-85.333 85.333-85.333c47.128 0 85.333 38.205 85.333 85.333s-38.205 85.333-85.333 85.333z" />
<glyph unicode="&#xe935;" glyph-name="mobile" d="M298.667 831.984c-23.564 0-42.667-19.103-42.667-42.667v-682.667c0-23.564 19.103-42.667 42.667-42.667h426.667c23.564 0 42.667 19.103 42.667 42.667v682.667c0 23.564-19.103 42.667-42.667 42.667h-426.667zM298.667 917.317h426.667c70.692 0 128-57.308 128-128v-682.667c0-70.692-57.308-128-128-128h-426.667c-70.692 0-128 57.308-128 128v682.667c0 70.692 57.308 128 128 128zM512 191.984c47.128 0 85.333 38.205 85.333 85.333 0 29.656-15.128 55.779-38.089 71.072-13.527 9.010-29.773 14.261-47.244 14.261-8.879 0-17.441-1.356-25.491-3.872-34.677-10.84-59.843-43.212-59.843-81.461 0-47.128 38.205-85.333 85.333-85.333z" />
<glyph unicode="&#xe936;" glyph-name="paper_plane" d="M957.645 487.578l-845.227 466.389c-34.773 19.2-76.587-10.283-68.821-48.427l67.328-329.813c3.755-18.261 18.56-32.512 37.376-35.84l459.221-69.419c26.325-3.968 26.325-40.96 0-44.928l-459.221-69.419c-18.816-3.328-33.621-17.579-37.376-35.84l-67.328-329.813c-7.765-38.187 34.048-67.627 68.821-48.427l845.227 466.389c31.573 17.408 31.573 61.696 0 79.147z" />
<glyph unicode="&#xe939;" glyph-name="phone" d="M891.227 238.060c0.551 22.716-15.228 41.339-36.299 44.313-44.153 5.823-87.506 16.623-129.327 32.229-15.592 5.861-33.169 2.112-44.844-9.432l-54.187-54.187c-13.581-13.581-34.563-16.414-51.26-6.92-113.494 64.535-207.465 158.506-272 272-9.494 16.696-6.661 37.678 6.92 51.26l54.018 54.017c11.712 11.844 15.461 29.421 9.564 45.11-15.57 41.725-26.369 85.078-32.139 128.839-2.997 21.206-21.251 36.904-43.087 36.693h-127.96c-11.977-0.013-23.397-5.058-31.472-13.903s-12.060-20.677-11.047-31.94c13.297-125.218 55.904-245.544 124.57-351.543 62.148-97.803 145.068-180.723 243.204-243.085 105.206-68.226 224.949-110.823 348.839-124.291 11.965-1.081 23.832 2.932 32.684 11.054s13.871 19.599 13.822 31.786v128zM566.23 311.323l51.26 6.92c-9.376 5.332-18.602 10.891-27.669 16.671l-23.591-23.591zM976.56 110.233c0.146-36.041-14.909-70.474-41.467-94.839s-62.158-36.405-98.822-33.084c-137.927 14.987-270.415 62.118-386.487 137.392-108.377 68.867-200.261 160.752-268.926 268.813-75.751 116.933-122.893 250.066-137.671 389.278-3.234 35.784 8.721 71.28 32.945 97.816s58.485 41.67 94.455 41.708h127.58c64.247 0.626 119.008-46.468 128.054-110.479 4.982-37.773 14.221-74.86 27.505-110.46 17.583-46.776 6.337-99.508-28.968-135.209l-30.596-30.596c50.17-78.705 116.955-145.491 195.66-195.66l30.765 30.764c35.532 35.137 88.264 46.383 134.944 28.836 35.695-13.32 72.783-22.559 110.937-27.593 64.164-9.052 111.409-64.614 110.093-129.339v-127.35z" />
<glyph unicode="&#xe93a;" glyph-name="plus" d="M512 831.984c26.51 0 48-21.49 48-48v0-288h288c24.742 0 45.112-18.72 47.718-42.77l0.282-5.23c0-26.51-21.49-48-48-48v0h-288v-288c0-24.742-18.72-45.112-42.77-47.718l-5.23-0.282c-26.51 0-48 21.49-48 48v0 288h-288c-24.742 0-45.112 18.72-47.718 42.77l-0.282 5.23c0 26.51 21.49 48 48 48v0h288v288c0 24.742 18.72 45.112 42.77 47.718z" />
<glyph unicode="&#xe93b;" glyph-name="untitled6" horiz-adv-x="788" d="M511.224 959.988v-240.010c0-20.126 16.345-36.47 36.51-36.47h239.97l-276.48 276.48z" />
<glyph unicode="&#xe93c;" glyph-name="untitled7" horiz-adv-x="788" d="M511.26 719.99v240.010h-476.711c-19.062 0-34.54-15.833-34.54-35.328v-953.383c0-19.495 15.478-35.289 34.54-35.289h718.572c19.102 0 34.58 15.793 34.58 35.289v712.231h-240.719c-19.732 0-35.722 16.305-35.722 36.47z" />
<glyph unicode="&#xe93d;" glyph-name="untitled8" horiz-adv-x="788" d="M585.878 392.912l-192.039-95.705v214.567c-118.508 0-214.528-96.059-214.528-214.567 0-118.469 96.020-214.528 214.528-214.528s214.528 96.059 214.528 214.528c0 34.383-8.113 66.914-22.489 95.705z" />
<glyph unicode="&#xe93e;" glyph-name="untitled9" horiz-adv-x="788" d="M592.723 436.566c-31.862 57.777-92.042 97.438-161.95 100.273v-180.972l161.95 80.699z" />
<glyph unicode="&#xe93f;" glyph-name="untitled10" horiz-adv-x="788" d="M596.724 429.796c-0.039 0.039-0.079 0.079-0.079 0.118l0.039-0.118h0.039z" />
<glyph unicode="&#xe941;" glyph-name="search" d="M448 874.667c200.295 0 362.667-162.371 362.667-362.667 0-84.758-29.076-162.726-77.798-224.472l193.301-193.358c16.662-16.662 16.662-43.677 0-60.34s-43.677-16.662-60.34 0v0l-193.358 193.301c-61.746-48.722-139.713-77.798-224.472-77.798-200.295 0-362.667 162.371-362.667 362.667s162.371 362.667 362.667 362.667zM448 789.333c-153.167 0-277.333-124.166-277.333-277.333s124.166-277.333 277.333-277.333c75.538 0 144.022 30.2 194.037 79.184l1.926 2.186c0.688 0.688 1.394 1.348 2.116 1.979 49.055 49.963 79.254 118.447 79.254 193.984 0 153.167-124.166 277.333-277.333 277.333z" />
<glyph unicode="&#xe942;" glyph-name="search1" d="M448 874.667c200.295 0 362.667-162.371 362.667-362.667 0-84.758-29.076-162.726-77.798-224.472l193.301-193.358c16.662-16.662 16.662-43.677 0-60.34s-43.677-16.662-60.34 0v0l-193.358 193.301c-61.746-48.722-139.713-77.798-224.472-77.798-200.295 0-362.667 162.371-362.667 362.667s162.371 362.667 362.667 362.667zM448 789.333c-153.167 0-277.333-124.166-277.333-277.333s124.166-277.333 277.333-277.333c75.538 0 144.022 30.2 194.037 79.184l1.926 2.186c0.688 0.688 1.394 1.348 2.116 1.979 49.055 49.963 79.254 118.447 79.254 193.984 0 153.167-124.166 277.333-277.333 277.333z" />
<glyph unicode="&#xe946;" glyph-name="times" d="M802.353 815.917c21.423 21.423 56.157 21.423 77.58 0s21.423-56.157 0-77.58v0l-290.365-290.353 290.365-290.353c19.638-19.638 21.274-50.46 4.909-71.962l-4.909-5.618c-21.423-21.423-56.157-21.423-77.58 0v0l-290.353 290.365-290.353-290.365c-19.638-19.638-50.46-21.274-71.962-4.909l-5.618 4.909c-21.423 21.423-21.423 56.157 0 77.58v0l290.365 290.353-290.365 290.353c-19.638 19.638-21.274 50.46-4.909 71.962l4.909 5.618c21.423 21.423 56.157 21.423 77.58 0v0l290.353-290.365z" />
<glyph unicode="&#xe94c;" glyph-name="users" d="M554.667 362.651c114.72 0 208.291-90.552 213.136-204.079l0.197-9.254v-85.333c0-23.564-19.103-42.667-42.667-42.667-21.881 0-39.915 16.471-42.38 37.691l-0.287 4.976v85.333c0 68.168-53.287 123.89-120.479 127.783l-7.521 0.217h-341.333c-68.168 0-123.89-53.287-127.783-120.479l-0.217-7.521v-85.333c0-23.564-19.103-42.667-42.667-42.667-21.881 0-39.915 16.471-42.38 37.691l-0.287 4.976v85.333c0 114.72 90.552 208.291 204.079 213.136l9.254 0.197h341.333zM864 355.749c90.995-23.495 155.51-103.589 159.775-196.75l0.225-9.682v-85.333c0-23.564-19.103-42.667-42.667-42.667-21.881 0-39.915 16.471-42.38 37.691l-0.287 4.976v85.302c-0.044 58.332-39.52 109.257-96 123.84-22.816 5.891-36.536 29.163-30.645 51.978s29.163 36.536 51.978 30.645zM384 874.651c117.821 0 213.333-95.513 213.333-213.333s-95.513-213.333-213.333-213.333c-117.821 0-213.333 95.513-213.333 213.333s95.513 213.333 213.333 213.333zM693.25 867.771c94.395-24.169 160.418-109.226 160.418-206.667s-66.023-182.498-160.418-206.667c-22.828-5.845-46.072 7.923-51.916 30.75s7.923 46.072 30.75 51.916c56.637 14.501 96.251 65.536 96.251 124s-39.614 109.499-96.251 124c-22.828 5.845-36.595 29.089-30.75 51.916s29.089 36.595 51.916 30.75zM384 789.317c-70.692 0-128-57.308-128-128s57.308-128 128-128c70.692 0 128 57.308 128 128s-57.308 128-128 128z" />
<glyph unicode="&#xe94e;" glyph-name="untitled11" horiz-adv-x="788" d="M511.216 719.99v240.010h-476.633c-19.102 0-34.58-15.833-34.58-35.328v-953.383c0-19.495 15.478-35.289 34.58-35.289h718.533c19.102 0 34.58 15.793 34.58 35.289v712.231h-240.758c-19.732 0-35.722 16.305-35.722 36.47z" />
<glyph unicode="&#xe94f;" glyph-name="untitled12" horiz-adv-x="788" d="M511.216 959.988v-240.010c0-20.126 16.345-36.47 36.51-36.47h239.97l-276.48 276.48z" />
<glyph unicode="&#xe950;" glyph-name="untitled13" horiz-adv-x="788" d="M404.716 413.601h90.466v90.466h-90.466z" />
<glyph unicode="&#xe951;" glyph-name="untitled14" horiz-adv-x="788" d="M150.449 413.601h202.673v90.466h-202.673z" />
<glyph unicode="&#xe952;" glyph-name="untitled15" horiz-adv-x="788" d="M546.737 413.601h90.466v90.466h-90.466z" />
<glyph unicode="&#xe953;" glyph-name="untitled16" horiz-adv-x="788" d="M404.716 258.15h90.466v90.466h-90.466z" />
<glyph unicode="&#xe954;" glyph-name="untitled17" horiz-adv-x="788" d="M150.449 258.15h202.673v90.466h-202.673z" />
<glyph unicode="&#xe955;" glyph-name="untitled18" horiz-adv-x="788" d="M546.737 258.15h90.466v90.466h-90.466z" />
<glyph unicode="&#xe956;" glyph-name="untitled19" horiz-adv-x="788" d="M404.716 115.42h90.466v90.466h-90.466z" />
<glyph unicode="&#xe957;" glyph-name="untitled20" horiz-adv-x="788" d="M150.449 115.42h202.673v90.466h-202.673z" />
<glyph unicode="&#xe958;" glyph-name="untitled21" horiz-adv-x="788" d="M546.737 115.42h90.466v90.466h-90.466z" />
<glyph unicode="&#xe95c;" glyph-name="untitled22" horiz-adv-x="788" d="M511.22 719.99v240.010h-476.672c-19.062 0-34.54-15.833-34.54-35.328v-953.383c0-19.495 15.478-35.289 34.54-35.289h718.572c19.102 0 34.58 15.793 34.58 35.289v712.231h-240.758c-19.732 0-35.722 16.305-35.722 36.47z" />
<glyph unicode="&#xe95d;" glyph-name="untitled23" horiz-adv-x="788" d="M511.22 959.988v-240.010c0-20.126 16.345-36.47 36.51-36.47h239.97l-276.48 276.48z" />
<glyph unicode="&#xe95e;" glyph-name="untitled24" horiz-adv-x="788" d="M253.487 521.22c-3.426-2.993-5.12-6.498-5.593-11.303-1.772-18.944 16.62-48.364 30.562-62.306 5.79-5.868 11.973-11.855 18.511-17.999-1.063 25.364-3.387 47.065-7.798 60.534-5.002 15.202-12.012 25.324-20.362 29.42-6.183 2.993-12.249 2.324-15.321 1.654zM336.668 341.626c-0.788-21.425-1.969-42.063-3.23-60.062 17.093 8.704 34.186 16.699 50.767 23.591-16.778 12.091-32.807 24.497-47.537 36.47zM480.343 292.316c34.777-18.235 67.111-29.105 92.16-26.9 11.5 0.985 19.062 5.947 21.937 14.257 2.284 6.577 0.748 13.391-1.969 15.911-9.452 8.862-47.183 7.759-112.128-3.269zM284.365 207.167c-25.836-16.699-48.994-34.146-66.206-50.609-24.497-23.355-28.948-48.286-24.576-55.69 2.363-4.017 12.288-4.135 24.655-0.276 28.239 8.822 52.421 48.167 66.127 106.575zM202.366 57.584c-26.427 0-38.715 14.966-43.362 22.922-16.423 27.845-3.23 72.034 31.39 105.118 25.364 24.222 61.794 49.979 101.218 73.058 2.284 28.869 5.081 73.177 5.75 116.263-24.773 21.937-41.945 38.873-47.301 44.268-16.108 16.108-45.647 56.635-42.142 94.444 1.654 17.605 10.279 32.217 25.009 42.299l1.733 1.182 1.969 0.827c2.481 0.985 24.458 9.413 48.64-1.733 19.141-8.862 33.28-26.9 42.063-53.602 7.838-23.946 10.437-65.615 10.398-109.726 28.948-24.812 61.007-49.703 92.83-70.853 11.461 3.505 22.292 6.223 32.138 7.995 94.169 16.699 135.286 15.36 157.223-5.12 14.769-13.824 19.771-37.258 12.485-58.368-8.074-23.394-29.184-38.754-56.438-41.157-39.503-3.466-90.27 14.218-151.316 52.46-29.578-10.516-62.897-25.994-95.074-43.717-0.788-8.271-1.418-13.47-1.615-14.651l-0.354-1.733c-9.255-49.585-34.146-135.719-97.359-155.49-10.673-3.348-19.968-4.687-27.884-4.687z" />
<glyph unicode="&#xe963;" glyph-name="untitled25" horiz-adv-x="788" d="M511.228 960.004v-240.010c0-20.126 16.345-36.51 36.47-36.51h240.010l-276.48 276.519z" />
<glyph unicode="&#xe964;" glyph-name="untitled26" horiz-adv-x="788" d="M511.228 720.002v240.010h-475.924c-19.495 0-35.289-15.872-35.289-35.367v-953.344c0-19.495 15.793-35.289 35.289-35.289h717.076c19.495 0 35.328 15.793 35.328 35.289v712.192h-240.010c-20.126 0-36.47 16.345-36.47 36.51z" />
<glyph unicode="&#xe965;" glyph-name="untitled27" horiz-adv-x="788" d="M153.482 438.847h480.689v62.385h-480.689z" />
<glyph unicode="&#xe966;" glyph-name="untitled28" horiz-adv-x="788" d="M153.482 282.962h375.69v62.385h-375.69z" />
<glyph unicode="&#xe967;" glyph-name="untitled29" horiz-adv-x="788" d="M153.482 127.078h270.69v62.385h-270.69z" />
<glyph unicode="&#xe968;" glyph-name="untitled30" horiz-adv-x="788" d="M511.224 960.004v-240.010c0-20.126 16.345-36.51 36.47-36.51h240.010l-276.48 276.519z" />
<glyph unicode="&#xe969;" glyph-name="untitled31" horiz-adv-x="788" d="M511.224 720.002v240.010h-475.884c-19.535 0-35.328-15.872-35.328-35.367v-953.344c0-19.495 15.793-35.289 35.328-35.289h717.036c19.495 0 35.328 15.793 35.328 35.289v712.192h-240.010c-20.126 0-36.47 16.345-36.47 36.51z" />
<glyph unicode="&#xe96a;" glyph-name="untitled32" horiz-adv-x="788" d="M493.072 38.463h-198.459c-6.262 0-11.382 5.081-11.382 11.382v250.801c0 6.262 5.12 11.382 11.382 11.382h198.459c6.302 0 11.382-5.12 11.382-11.382v-250.801c0-6.302-5.081-11.382-11.382-11.382z" />
<glyph unicode="&#xe96b;" glyph-name="untitled33" horiz-adv-x="788" d="M417.473 359.888h-47.262c-6.302 0-11.382 5.12-11.382 11.382v68.254c0 6.341 5.081 11.422 11.382 11.422h47.262c6.302 0 11.382-5.081 11.382-11.422v-68.254c0-6.262-5.081-11.382-11.382-11.382z" />
<glyph unicode="&#xe96c;" glyph-name="untitled34" horiz-adv-x="788" d="M417.473 498.81h-47.262c-6.302 0-11.382 5.081-11.382 11.382v68.254c0 6.341 5.081 11.422 11.382 11.422h47.262c6.302 0 11.382-5.081 11.382-11.422v-68.254c0-6.302-5.081-11.382-11.382-11.382z" />
<glyph unicode="&#xe96d;" glyph-name="untitled35" horiz-adv-x="788" d="M511.236 960.004v-240.010c0-20.126 16.345-36.51 36.47-36.51h240.010l-276.48 276.519z" />
<glyph unicode="&#xe96e;" glyph-name="untitled36" horiz-adv-x="788" d="M511.236 720.002v240.010h-475.924c-19.495 0-35.289-15.872-35.289-35.367v-953.344c0-19.495 15.793-35.289 35.289-35.289h717.076c19.495 0 35.328 15.793 35.328 35.289v712.192h-240.010c-20.126 0-36.47 16.345-36.47 36.51z" />
<glyph unicode="&#xe96f;" glyph-name="untitled37" horiz-adv-x="788" d="M250.273 376.272c37.218 0 67.387 30.169 67.387 67.387s-30.169 67.426-67.387 67.426c-37.218 0-67.387-30.208-67.387-67.426s30.169-67.387 67.387-67.387z" />
<glyph unicode="&#xe970;" glyph-name="untitled38" horiz-adv-x="788" d="M468.543 376.655l-126.425-175.774c-4.214-5.829-12.958-5.829-17.172 0l-66.127 91.963c-4.214 5.868-12.918 5.868-17.132 0l-114.255-158.878c-5.041-7.010-0.039-16.738 8.586-16.738h515.663c8.625 0 13.588 9.728 8.586 16.738l-174.592 242.688c-4.214 5.868-12.918 5.868-17.132 0z" />
<glyph unicode="&#xe971;" glyph-name="untitled39" horiz-adv-x="788" d="M511.228 960.004v-240.010c0-20.126 16.345-36.51 36.47-36.51h240.010l-276.48 276.519z" />
<glyph unicode="&#xe972;" glyph-name="untitled40" horiz-adv-x="788" d="M511.228 720.002v240.010h-475.924c-19.495 0-35.289-15.872-35.289-35.367v-953.344c0-19.495 15.793-35.289 35.289-35.289h717.076c19.495 0 35.328 15.793 35.328 35.289v712.192h-240.010c-20.126 0-36.47 16.345-36.47 36.51z" />
<glyph unicode="&#xe973;" glyph-name="untitled41" horiz-adv-x="788" d="M535.784 323.387l-290.343 176.286c-7.207 4.332-16.423-0.827-16.423-9.295v-352.453c0-8.468 9.216-13.627 16.423-9.255l290.343 176.246c6.932 4.214 6.932 14.297 0 18.471z" />
<glyph unicode="&#xe974;" glyph-name="untitled42" horiz-adv-x="788" d="M511.228 959.984v-240.010c0-20.086 16.345-36.47 36.47-36.47h240.010l-276.48 276.48z" />
<glyph unicode="&#xe975;" glyph-name="untitled43" horiz-adv-x="788" d="M511.228 719.982v240.010h-475.924c-19.495 0-35.289-15.833-35.289-35.328v-949.287c0-21.74 17.605-39.385 39.385-39.385h708.923c21.74 0 39.385 17.644 39.385 39.385v708.135h-240.010c-20.126 0-36.47 16.345-36.47 36.47z" />
<glyph unicode="&#xe976;" glyph-name="untitled44" horiz-adv-x="788" d="M462.056 222.83c0 34.974-32.729 56.871-75.894 56.871-43.205 0-76.524-21.898-76.524-56.871 0-35.643 33.319-57.62 76.524-57.62 43.166 0 75.894 21.977 75.894 57.62v0zM527.474 222.83c0-68.569-59.865-116.618-141.312-116.618-81.487 0-141.351 48.049-141.351 116.618 0 67.899 59.865 115.87 141.351 115.87 81.447 0 141.312-47.97 141.312-115.87v0zM570.049 435.389v-58.289h-369.034v58.289h153.049v80.266h64.197v-80.266h151.788z" />
<glyph unicode="&#xe97c;" glyph-name="mail" d="M853.337 831.984c70.497 0 128-57.503 128-128v-512c0-70.497-57.503-128-128-128h-682.667c-70.497 0-128 57.503-128 128v512l0.003 0.81c0.008 0.455 0.024 0.911 0.047 1.366l-0.050-2.176c0 70.497 57.503 128 128 128h682.667zM896 622.064l-359.529-251.701c-14.691-10.284-34.244-10.284-48.935 0v0l-359.536 251.644 0.004-430.023c0-23.369 19.297-42.667 42.667-42.667h682.667c23.369 0 42.667 19.297 42.667 42.667l-0.004 430.080zM853.337 746.651h-682.667c-16.564 0-31.083-9.695-38.134-23.664l379.467-265.588 379.467 265.588c-7.051 13.969-21.57 23.664-38.134 23.664z" />
<glyph unicode="&#xe985;" glyph-name="uniE985" horiz-adv-x="788" d="M511.212 960v-239.97c0-20.126 16.345-36.549 36.47-36.549h240.010l-276.48 276.519z" />
<glyph unicode="&#xe986;" glyph-name="uniE986" horiz-adv-x="788" d="M511.212 720.030v239.97h-475.924c-19.495-0.039-35.249-15.833-35.289-35.328v-953.344c0-19.495 15.793-35.289 35.289-35.289h717.076c19.495 0 35.289 15.793 35.328 35.289v712.192h-240.010c-20.165 0-36.47 16.345-36.47 36.51z" />
<glyph unicode="&#xe987;" glyph-name="uniE987" horiz-adv-x="788" d="M181.090 131.033h43.717v180.539h61.991v35.998h-167.148v-35.998h61.44v-180.539zM299.52 131.033h46.395l23.316 48.010c5.317 11.106 10.319 22.528 15.951 35.682h1.182c6.498-13.154 11.5-24.576 17.132-35.682l24.537-48.010h48.443l-61.44 109.726 57.58 106.811h-46.080l-20.677-44.505c-4.726-10.24-9.137-20.756-14.454-34.225h-1.497l-13.785 29.066c-0.788 1.772-1.615 3.466-2.481 5.159l-21.858 44.505h-48.443l57.62-104.763-61.44-111.774zM550.912 131.033v180.539h-61.44v35.998h167.148v-35.998h-62.031v-180.539h-43.717z" />
<glyph unicode="&#xec00;" glyph-name="arrow_down" horiz-adv-x="964" d="M201.508 613.849c-0.286 0.007-0.623 0.010-0.962 0.010-24.953 0-45.181-20.228-45.181-45.181 0-13.918 6.293-26.366 16.189-34.654l0.071-0.058 281.059-240.941c7.853-6.765 18.151-10.884 29.412-10.884s21.559 4.12 29.471 10.934l-0.059-0.050 281.056 240.941c9.788 8.341 15.956 20.679 15.956 34.458 0 24.955-20.23 45.185-45.185 45.185-11.29 0-21.613-4.141-29.533-10.986l0.058 0.049-251.762-215.765-251.765 215.765c-7.675 6.746-17.738 10.939-28.774 11.176l-0.049 0.001z" />
<glyph unicode="&#xec01;" glyph-name="log_out" horiz-adv-x="970" d="M350.316 919.579c22.324 0 40.421-18.097 40.421-40.421s-18.097-40.421-40.421-40.421v0h-202.105c-22.324 0-40.421-18.097-40.421-40.421v0-646.737c0-22.312 18.109-40.421 40.421-40.421h202.105c22.324 0 40.421-18.097 40.421-40.421s-18.097-40.421-40.421-40.421v0h-202.105c-66.972 0-121.263 54.291-121.263 121.263v0 646.737c0 66.972 54.291 121.263 121.263 121.263v0zM604.699 665.196c7.313 7.304 17.411 11.821 28.564 11.821s21.251-4.517 28.565-11.822v0l161.684-161.684c7.298-7.32 11.821-17.411 11.857-28.557v-0.007l-0.216 3.988c0.108-0.808 0.162-1.617 0.162-2.479l0.054-1.509c-0.052-8.446-2.642-16.277-7.045-22.781l0.092 0.145c-1.498-2.218-3.094-4.156-4.853-5.931l0.003 0.003 3.665 4.204c-0.142-0.173-0.23-0.278-0.318-0.383l0.049 0.059-3.449-3.88-161.684-161.684c-7.199-6.722-16.895-10.849-27.556-10.849-22.324 0-40.421 18.097-40.421 40.421 0 10.661 4.127 20.357 10.87 27.579l-0.022-0.023 92.645 92.699h-387.449c-20.384 0.001-37.244 15.091-40.019 34.709l-0.025 0.215-0.377 5.497c0 22.324 18.097 40.421 40.421 40.421v0h387.449l-92.699 92.699c-7.298 7.312-11.811 17.406-11.811 28.554 0 9.055 2.978 17.415 8.007 24.153l-0.076-0.106z" />
<glyph unicode="&#xec02;" glyph-name="bell_off" d="M386.219 799.118c36.183 20.777 79.551 33.031 125.781 33.031 141.385 0 256-114.615 256-256 0-0.052 0-0.105 0-0.157v0.008-170.667c0-23.564 19.103-42.667 42.667-42.667s42.667 19.103 42.667 42.667v0 170.667c0 0.046 0 0.101 0 0.156 0 188.513-152.82 341.333-341.333 341.333-61.663 0-119.507-16.351-169.433-44.954l1.668 0.88c-13.036-7.468-21.677-21.299-21.677-37.148 0-23.566 19.104-42.669 42.669-42.669 7.716 0 14.955 2.048 21.2 5.631l-0.208-0.11zM12.459 947.484c7.722 7.727 18.393 12.506 30.18 12.506s22.457-4.78 30.179-12.506l938.667-938.667c7.095-7.599 11.451-17.834 11.451-29.087 0-23.564-19.103-42.667-42.667-42.667-11.253 0-21.488 4.356-29.112 11.474l0.025-0.023-243.541 243.484h-622.308c-54.5 0-56.775 78.393-6.827 84.878l6.827 0.455c47.128 0 85.333 38.205 85.333 85.333v0 213.333c0 0.111 0 0.242 0 0.374 0 46.033 9.113 89.938 25.632 130.009l-0.828-2.269-182.955 183.068c-7.71 7.719-12.478 18.378-12.478 30.151s4.768 22.432 12.478 30.152v0zM548.921 85.39c7.66 12.148 21.007 20.1 36.21 20.1 23.564 0 42.667-19.103 42.667-42.667 0-7.404-1.886-14.367-5.203-20.436l0.111 0.223c-22.576-38.389-63.68-63.749-110.706-63.749s-88.129 25.36-110.38 63.15l-0.326 0.599c-3.206 5.846-5.092 12.81-5.092 20.213 0 23.564 19.103 42.667 42.667 42.667 15.204 0 28.55-7.952 36.106-19.924l0.104-0.176c7.521-12.815 21.232-21.282 36.921-21.282s29.4 8.468 36.812 21.082l0.109 0.2zM622.308 277.333l-359.14 359.196c-4.555-18.076-7.168-38.828-7.168-60.19 0-0.12 0-0.239 0-0.359v0.019-213.333c0-31.061-8.306-60.245-22.812-85.333h389.12z" />
</font>
</defs>
</svg>
